#!OML:ASF F:\VICON\USERDATA\INSTALL\rory3\rory3.ASF
:FULLY-SPECIFIED
:DEGREES
70
root 0.811969104352736 18.80803495667812 12.186799075085034 20.26260476104937 -0.2184486263263763 -3.0431942850804656
lfemur -31.84351342343713 5.903427474338205 -18.206363045518913
ltibia 31.1852173649348
lfoot -9.815262815663488 4.369382382654081
ltoes -9.248989315300829
rfemur -24.01465377868324 -0.8240564547371036 21.71228999666787
rtibia 26.837456673525715
rfoot -11.359761939221652 1.5383773625660564
rtoes 10.291595388927094
lowerback 6.911110741909793 0.945253779897862 -0.07145241011099182
upperback 5.775836331562892 1.1868072376199739 1.6457383837992543
thorax 4.148147073020411 0.5032595089475952 1.4885515716478441
lowerneck -13.46944156531533 0.16583517544640097 -0.4068402144718606
upperneck 30.413513526972647 0.06684056607468913 0.30219122759352884
head 12.495836263285534 -0.009365889159226481 0.3195947967043555
lclavicle 3.8823588757461143e-16 -1.434263265090866e-15
lhumerus -30.418660041077107 -1.101898901963437 79.10532773534632
lradius 21.784579057524326
lwrist 16.734364006208413
lhand -25.09816864135548 -7.932750329210404
lfingers 7.12502
lthumb 0.8521293900085455 21.19496675965803
rclavicle 3.8825984126022926e-16 -1.4342619768107754e-15
rhumerus -31.429012727383867 -16.37418705343599 -67.08207320042294
rradius 22.748863361238737
rwrist 34.86832710466692
rhand -21.50393870556488 -26.44804343330245
rfingers 7.12502
rthumb 5.293559929267992 -56.105454791869036
71
root 0.8153352408720989 18.82031015480076 12.154858630026927 20.753910684624977 -0.6016189329622552 -2.9527395903504488
lfemur -32.04402227574562 6.159685613525869 -18.361923955780608
ltibia 31.479970123327302
lfoot -9.896563916823515 3.9097496665073255
ltoes -8.945002656008505
rfemur -23.42134821167007 -0.7135164499287313 21.650713641275857
rtibia 26.481845491800932
rfoot -11.523496264517814 1.846815793140809
rtoes 9.870448781385486
lowerback 6.310265749761951 1.0551561612160558 -0.2979203757831782
upperback 5.910086123919593 1.32703737960838 1.6037573585578955
thorax 4.361218991064057 0.5521280390412769 1.4555151575351821
lowerneck -13.649690756560274 0.21566275657707956 -0.4766606423256426
upperneck 30.68441901478353 0.1976564560224614 0.1505727282097486
head 12.576316903690206 0.037039037645585526 0.22746126854994442
lclavicle 3.8778515212563735e-16 -1.434949194024686e-15
lhumerus -24.370347321236448 -2.3115228746091283 80.41381547763407
lradius 23.381251658640704
lwrist 19.303781955248276
lhand -24.743352660423334 -7.471999218443196
lfingers 7.12502
lthumb 1.0739886525811146 21.716386856634276
rclavicle 3.87495990046095e-16 -1.4353413281915162e-15
rhumerus -33.006569650304414 -16.19326584989162 -66.96668326907859
rradius 22.77627414457837
rwrist 35.020019653044976
rhand -21.855826660322165 -26.3320383696354
rfingers 7.12502
rthumb 4.699428516352793 -56.19194159398384
72
root 0.8034516236513054 18.81854918807481 12.346409078936935 21.304981280135674 -0.7800646193695995 -2.934635236402644
lfemur -32.62311365815921 6.228334537506745 -18.436072643239022
ltibia 32.569602538247494
lfoot -9.942826324414003 3.6326573979345014
ltoes -8.475740086886903
rfemur -22.41514928331213 -0.6326454799245982 21.68751286935579
rtibia 25.80574587370387
rfoot -11.609709719137145 1.973441409992391
rtoes 9.860768081766071
lowerback 5.107368316814196 1.0545062572676864 -0.4636498182504219
upperback 5.99250052456864 1.292478874013983 1.5913912076424552
thorax 4.530671429663791 0.5388163481073808 1.471223920966934
lowerneck -13.77020709342124 0.2546552726337093 -0.5234569830511193
upperneck 30.459140835403957 0.3147617027300279 0.008913110662327695
head 12.502890449690318 0.0857437396937546 0.13589333285565658
lclavicle 3.8827236147662417e-16 -1.4343092208807578e-15
lhumerus -18.661797779266795 -3.6275626689554974 81.52452219432969
lradius 25.32195961238454
lwrist 22.162473313917
lhand -24.393643966551906 -7.137859906089476
lfingers 7.12502
lthumb 1.3585635883806628 22.024277276616566
rclavicle 3.8636204812765373e-16 -1.436942839057213e-15
rhumerus -34.36886634798339 -15.892092250570329 -67.07246825029648
rradius 23.30984433740131
rwrist 34.55731579478055
rhand -22.331549153339978 -26.270340728504408
rfingers 7.12502
rthumb 4.007483176403498 -56.457886684767146
73
root 0.7810574279230564 18.820662374612127 12.585769189137734 21.109691468710984 -0.522120767448834 -2.933554746571902
lfemur -33.19902226593137 6.106596896802119 -18.462704259012646
ltibia 34.20912261794634
lfoot -9.970282684967252 3.4301517409535034
ltoes -8.065582094717573
rfemur -21.47570829491022 -0.7459789615821689 21.767268993887484
rtibia 25.21536459881118
rfoot -11.61042588240617 1.842991914441979
rtoes 10.24620974662452
lowerback 3.8139609683321334 0.9184957064166048 -0.5259383393037539
upperback 6.022285913047139 1.0908382089814148 1.5915444011178987
thorax 4.654227732578422 0.45654554970878947 1.5103775421740435
lowerneck -13.875207382677768 0.27311640906969714 -0.6483462693330904
upperneck 30.52508573346884 0.3718424727720776 -0.07318217292752513
head 12.572814591119458 0.10798940859519074 0.06094121777554362
lclavicle 3.8871744982251754e-16 -1.433574501713186e-15
lhumerus -14.568839580563454 -5.279550190419444 82.34647800100417
lradius 27.414379479538294
lwrist 24.73264542083152
lhand -24.20531712849313 -6.875743651473146
lfingers 7.12502
lthumb 1.6557474165913237 22.320682576918873
rclavicle 3.8591204423645637e-16 -1.4375748348624774e-15
rhumerus -35.59051670500858 -15.679001850630296 -67.15968988397354
rradius 24.035166542148048
rwrist 33.765256870317835
rhand -22.55235289595438 -26.10888050214452
rfingers 7.12502
rthumb 3.544205448465322 -56.57085917695073
74
root 0.7535269043108723 18.800243757620375 12.811937254966166 20.717062254052077 -0.23694911828995524 -2.9587838237487842
lfemur -33.39992858486835 6.020565938473583 -18.452237522534016
ltibia 35.65361891635968
lfoot -10.116040851220223 3.389411972699955
ltoes -7.752037806311221
rfemur -20.700202991216067 -0.9497342344777928 21.910968264668192
rtibia 24.39665925907612
rfoot -11.656714880794967 1.485234540120922
rtoes 10.782306259167946
lowerback 2.6725468142164175 0.8360605712992633 -0.5130719980615139
upperback 6.056156195397197 0.9841055492594961 1.5912111570793472
thorax 4.711927845241045 0.4162040707737735 1.5568347462639176
lowerneck -14.06694092620003 0.250582795994658 -0.8857839220313604
upperneck 30.421212526844812 0.3811113433575768 -0.08511544665734999
head 12.570555068810167 0.10855786764580327 0.05160516137222543
lclavicle 3.871668510893978e-16 -1.4356018238319218e-15
lhumerus -12.154637348527435 -6.821847487465272 82.96275867937923
lradius 29.184793811688294
lwrist 26.590550664356595
lhand -24.147918070295773 -6.826301376334425
lfingers 7.12502
lthumb 1.813021319551275 22.53508260967567
rclavicle 3.8615652322620334e-16 -1.437229396793016e-15
rhumerus -36.472636612648095 -15.517656546488496 -67.41611014680453
rradius 24.573267905447292
rwrist 33.21166154052833
rhand -22.735562903707628 -26.08680602780794
rfingers 7.12502
rthumb 3.1003024448425998 -56.7959782048049
75
root 0.73236619117888 18.78434497630384 12.868058086130434 20.574876546710847 -0.28089723968121827 -2.9676803880297458
lfemur -32.77220207495131 6.145376741536779 -18.402055839161815
ltibia 36.03578968397108
lfoot -10.228727760219073 3.5404084554143678
ltoes -7.820413208655698
rfemur -20.115371044534143 -1.1526885127814661 22.001737844822713
rtibia 23.17317163833417
rfoot -11.706627728386085 1.4187707571140877
rtoes 11.11955631558378
lowerback 1.696671773472822 0.911596528387391 -0.4959950625813101
upperback 6.106560741970004 1.1019337767801982 1.5316411653763071
thorax 4.761654074403005 0.4715644077997786 1.5397740202730232
lowerneck -14.228264095736225 0.2192406941179877 -1.0159845280342787
upperneck 30.194959934153054 0.37633563342043574 -0.10699467362262616
head 12.530051181898209 0.10652198762586829 0.02604403299263472
lclavicle 3.8713701491593544e-16 -1.4355634583909803e-15
lhumerus -10.275669136920467 -7.86549268363117 83.55891380301443
lradius 30.450100421347766
lwrist 28.006465089676723
lhand -24.33587259969218 -7.062750754583135
lfingers 7.12502
lthumb 1.654020593472759 22.39869243609829
rclavicle 3.862774393501875e-16 -1.4370588699669029e-15
rhumerus -36.96453497236111 -15.06938935096169 -68.09621258150274
rradius 25.07538432817638
rwrist 32.892423950535154
rhand -22.82822628246599 -26.1666480612333
rfingers 7.12502
rthumb 2.746671714431756 -57.03435646782015
76
root 0.700661329312936 18.763054033199705 12.622742467935241 20.437800528971962 -0.31393923865208107 -2.871056330483741
lfemur -31.924742037960627 6.191886336875854 -18.451083082240853
ltibia 35.914000725655235
lfoot -10.46118941000507 3.619671555177587
ltoes -7.972725745321047
rfemur -19.49799944700657 -1.3186733740708796 21.97938323686697
rtibia 22.106868399956863
rfoot -11.836975462214605 1.6372533640409528
rtoes 11.282285326914433
lowerback 0.8161453976569089 0.9595848890496774 -0.5949390540240903
upperback 6.162651198101137 1.1666435746756798 1.425072258739068
thorax 4.78093206301763 0.5094930502861384 1.5232265537233072
lowerneck -14.431150999888512 0.22311267117825256 -1.0065646146661602
upperneck 30.165162633335658 0.4152410991127966 -0.14158008396242736
head 12.61387256685101 0.12036731687195584 0.007762800623092092
lclavicle 3.885442043738961e-16 -1.4336126002596074e-15
lhumerus -9.155295031244798 -8.67942787379304 84.06266730854364
lradius 31.072337892910866
lwrist 28.715803601304543
lhand -24.859975566522092 -7.374637980021381
lfingers 7.12502
lthumb 1.3857890743968484 22.200372204583164
rclavicle 3.860754894158344e-16 -1.4373472809446194e-15
rhumerus -36.58051224333234 -14.147749818592068 -69.16000397152371
rradius 25.77332437661525
rwrist 32.32783427842147
rhand -22.90038964342444 -26.181320389191523
rfingers 7.12502
rthumb 2.545902540285012 -57.07162046001495
